<?xml version="1.0" encoding="UTF-8"?>
<svg xmlns="http://www.w3.org/2000/svg" xmlns:xlink="http://www.w3.org/1999/xlink" width="30pt" height="11pt" viewBox="0 0 30 11" version="1.1">
<g id="surface1">
<path style=" stroke:none;fill-rule:nonzero;fill:rgb(0%,0%,0%);fill-opacity:1;" d="M 7.382812 2.332031 C 6.796875 2.988281 6.445312 4.125 6.5625 4.902344 C 6.679688 6.039062 7.089844 6.277344 8.964844 6.398438 C 10.839844 6.457031 11.132812 6.277344 11.132812 5.199219 C 11.132812 4.484375 11.308594 3.347656 11.484375 2.691406 C 11.71875 1.675781 11.484375 1.433594 10.078125 1.316406 C 9.023438 1.253906 8.027344 1.613281 7.382812 2.332031 Z M 10.3125 2.628906 C 10.722656 3.765625 9.492188 6.097656 8.613281 5.800781 C 7.617188 5.5 7.382812 3.707031 8.203125 2.691406 C 9.140625 1.554688 9.902344 1.554688 10.3125 2.628906 Z M 10.3125 2.628906 "/>
<path style=" stroke:none;fill-rule:nonzero;fill:rgb(0%,0%,0%);fill-opacity:1;" d="M 23.730469 2.390625 C 23.203125 2.988281 22.851562 4.125 22.96875 4.902344 C 23.085938 6.039062 23.496094 6.277344 25.371094 6.398438 C 27.363281 6.457031 27.539062 6.335938 27.539062 4.78125 C 27.539062 3.824219 27.65625 2.691406 27.832031 2.210938 C 28.359375 0.898438 24.902344 1.015625 23.730469 2.390625 Z M 26.367188 3.527344 C 26.367188 5.140625 25.195312 6.335938 24.375 5.558594 C 23.730469 4.902344 24.023438 2.511719 24.785156 2.210938 C 26.132812 1.613281 26.367188 1.792969 26.367188 3.527344 Z M 26.367188 3.527344 "/>
<path style=" stroke:none;fill-rule:nonzero;fill:rgb(0%,0%,0%);fill-opacity:1;" d="M 3.574219 3.167969 C 4.160156 4.484375 4.042969 4.960938 2.636719 6.816406 C 0.761719 9.324219 1.347656 9.746094 3.28125 7.292969 L 4.570312 5.679688 L 5.273438 7.472656 C 5.683594 8.429688 6.09375 8.96875 6.269531 8.609375 C 6.5625 7.652344 4.394531 2.210938 3.574219 1.914062 C 3.046875 1.734375 3.046875 2.03125 3.574219 3.167969 Z M 3.574219 3.167969 "/>
<path style=" stroke:none;fill-rule:nonzero;fill:rgb(0%,0%,0%);fill-opacity:1;" d="M 15.292969 4.542969 C 15.234375 6.097656 16.347656 9.566406 16.933594 9.566406 C 17.167969 9.566406 17.988281 8.847656 18.808594 7.949219 C 20.097656 6.457031 20.097656 6.398438 18.867188 7.414062 C 17.34375 8.726562 16.933594 8.488281 16.054688 5.5 C 15.585938 4.003906 15.351562 3.707031 15.292969 4.542969 Z M 15.292969 4.542969 "/>
<path style=" stroke:none;fill-rule:nonzero;fill:rgb(0%,0%,0%);fill-opacity:1;" d="M 21.328125 4.304688 C 20.625 5.441406 20.332031 10.164062 20.976562 10.164062 C 21.328125 10.164062 21.679688 8.726562 21.796875 7.054688 C 22.089844 3.527344 22.03125 3.167969 21.328125 4.304688 Z M 21.328125 4.304688 "/>
<path style=" stroke:none;fill-rule:nonzero;fill:rgb(0%,0%,0%);fill-opacity:1;" d="M 11.71875 10.164062 C 11.71875 10.460938 11.953125 10.761719 12.246094 10.761719 C 12.597656 10.761719 13.007812 10.460938 13.183594 10.164062 C 13.359375 9.804688 13.125 9.566406 12.65625 9.566406 C 12.128906 9.566406 11.71875 9.804688 11.71875 10.164062 Z M 11.71875 10.164062 "/>
</g>
</svg>
